<?xml version="1.0" encoding="UTF-8" standalone="no"?><!DOCTYPE svg PUBLIC "-//W3C//DTD SVG 1.1//EN" "http://www.w3.org/Graphics/SVG/1.1/DTD/svg11.dtd"><!-- Generated by graphviz version 2.40.1 (20161225.0304)
 --><!-- Title: G Pages: 1 --><svg xmlns="http://www.w3.org/2000/svg" xmlns:xlink="http://www.w3.org/1999/xlink" width="1247pt" height="260pt" viewBox="0.00 0.00 1247.38 260.00">
<g id="graph0" class="graph" transform="scale(1 1) rotate(0) translate(4 256)">
<title>G</title>
<polygon fill="#ffffff" stroke="transparent" points="-4,4 -4,-256 1243.375,-256 1243.375,4 -4,4"/>
<!-- data.aws_ami.amazon_linux_ami -->
<g id="node1" class="node">
<title>data.aws_ami.amazon_linux_ami</title>
<polygon fill="none" stroke="#000000" points="879.5727,-36 675.7863,-36 675.7863,0 879.5727,0 879.5727,-36"/>
<text text-anchor="middle" x="777.6795" y="-13.8" font-family="sans-serif" font-size="14.00" fill="#000000">data.aws_ami.amazon_linux_ami</text>
</g>
<!-- aws_efs_file_system.file_system_1 -->
<g id="node2" class="node">
<title>aws_efs_file_system.file_system_1</title>
<polygon fill="none" stroke="#000000" points="598.4175,-36 384.0801,-36 384.0801,0 598.4175,0 598.4175,-36"/>
<text text-anchor="middle" x="491.2488" y="-13.8" font-family="sans-serif" font-size="14.00" fill="#000000">aws_efs_file_system.file_system_1</text>
</g>
<!-- aws_efs_mount_target.mount_targets -->
<g id="node3" class="node">
<title>aws_efs_mount_target.mount_targets</title>
<polygon fill="none" stroke="#000000" points="891.0143,-90 664.3447,-90 664.3447,-54 891.0143,-54 891.0143,-90"/>
<text text-anchor="middle" x="777.6795" y="-67.8" font-family="sans-serif" font-size="14.00" fill="#000000">aws_efs_mount_target.mount_targets</text>
</g>
<!-- aws_efs_mount_target.mount_targets&#45;&gt;aws_efs_file_system.file_system_1 -->
<g id="edge1" class="edge">
<title>aws_efs_mount_target.mount_targets-&gt;aws_efs_file_system.file_system_1</title>
<path fill="none" stroke="#000000" d="M681.904,-53.9437C654.6733,-48.81 624.8631,-43.1899 597.0727,-37.9507"/>
<polygon fill="#000000" stroke="#000000" points="597.4094,-34.4526 586.934,-36.0393 596.1125,-41.3314 597.4094,-34.4526"/>
</g>
<!-- aws_security_group.efs_sg -->
<g id="node10" class="node">
<title>aws_security_group.efs_sg</title>
<polygon fill="none" stroke="#000000" points="575.2552,-90 407.2424,-90 407.2424,-54 575.2552,-54 575.2552,-90"/>
<text text-anchor="middle" x="491.2488" y="-67.8" font-family="sans-serif" font-size="14.00" fill="#000000">aws_security_group.efs_sg</text>
</g>
<!-- aws_efs_mount_target.mount_targets&#45;&gt;aws_security_group.efs_sg -->
<g id="edge2" class="edge">
<title>aws_efs_mount_target.mount_targets-&gt;aws_security_group.efs_sg</title>
<path fill="none" stroke="#000000" d="M664.4745,-72C638.3617,-72 610.8551,-72 585.6419,-72"/>
<polygon fill="#000000" stroke="#000000" points="585.3607,-68.5001 575.3607,-72 585.3606,-75.5001 585.3607,-68.5001"/>
</g>
<!-- aws_subnet.public_subnet_1 -->
<g id="node12" class="node">
<title>aws_subnet.public_subnet_1</title>
<polygon fill="none" stroke="#000000" points="580.1104,-144 402.3872,-144 402.3872,-108 580.1104,-108 580.1104,-144"/>
<text text-anchor="middle" x="491.2488" y="-121.8" font-family="sans-serif" font-size="14.00" fill="#000000">aws_subnet.public_subnet_1</text>
</g>
<!-- aws_efs_mount_target.mount_targets&#45;&gt;aws_subnet.public_subnet_1 -->
<g id="edge3" class="edge">
<title>aws_efs_mount_target.mount_targets-&gt;aws_subnet.public_subnet_1</title>
<path fill="none" stroke="#000000" d="M681.904,-90.0563C652.3889,-95.6207 619.8432,-101.7564 590.1238,-107.3594"/>
<polygon fill="#000000" stroke="#000000" points="589.3403,-103.9453 580.1618,-109.2375 590.6372,-110.8242 589.3403,-103.9453"/>
</g>
<!-- aws_eip.eip -->
<g id="node4" class="node">
<title>aws_eip.eip</title>
<polygon fill="none" stroke="#000000" points="1239.6145,-90 1156.6593,-90 1156.6593,-54 1239.6145,-54 1239.6145,-90"/>
<text text-anchor="middle" x="1198.1369" y="-67.8" font-family="sans-serif" font-size="14.00" fill="#000000">aws_eip.eip</text>
</g>
<!-- aws_instance.my_instance -->
<g id="node5" class="node">
<title>aws_instance.my_instance</title>
<polygon fill="none" stroke="#000000" points="1120.8466,-90 956.0554,-90 956.0554,-54 1120.8466,-54 1120.8466,-90"/>
<text text-anchor="middle" x="1038.451" y="-67.8" font-family="sans-serif" font-size="14.00" fill="#000000">aws_instance.my_instance</text>
</g>
<!-- aws_eip.eip&#45;&gt;aws_instance.my_instance -->
<g id="edge4" class="edge">
<title>aws_eip.eip-&gt;aws_instance.my_instance</title>
<path fill="none" stroke="#000000" d="M1156.5982,-72C1148.6083,-72 1139.9477,-72 1131.0708,-72"/>
<polygon fill="#000000" stroke="#000000" points="1130.9808,-68.5001 1120.9808,-72 1130.9807,-75.5001 1130.9808,-68.5001"/>
</g>
<!-- aws_instance.my_instance&#45;&gt;data.aws_ami.amazon_linux_ami -->
<g id="edge5" class="edge">
<title>aws_instance.my_instance-&gt;data.aws_ami.amazon_linux_ami</title>
<path fill="none" stroke="#000000" d="M961.1269,-53.945C947.4456,-50.8731 933.32,-47.78 920.0032,-45 908.7516,-42.6512 896.9812,-40.2804 885.236,-37.9705"/>
<polygon fill="#000000" stroke="#000000" points="885.8735,-34.529 875.3878,-36.0463 884.5311,-41.399 885.8735,-34.529"/>
</g>
<!-- aws_instance.my_instance&#45;&gt;aws_efs_mount_target.mount_targets -->
<g id="edge6" class="edge">
<title>aws_instance.my_instance-&gt;aws_efs_mount_target.mount_targets</title>
<path fill="none" stroke="#000000" d="M955.9413,-72C938.5671,-72 919.8758,-72 901.3652,-72"/>
<polygon fill="#000000" stroke="#000000" points="901.1096,-68.5001 891.1095,-72 901.1095,-75.5001 901.1096,-68.5001"/>
</g>
<!-- aws_key_pair.deployer_key -->
<g id="node7" class="node">
<title>aws_key_pair.deployer_key</title>
<polygon fill="none" stroke="#000000" points="864.6213,-198 690.7377,-198 690.7377,-162 864.6213,-162 864.6213,-198"/>
<text text-anchor="middle" x="777.6795" y="-175.8" font-family="sans-serif" font-size="14.00" fill="#000000">aws_key_pair.deployer_key</text>
</g>
<!-- aws_instance.my_instance&#45;&gt;aws_key_pair.deployer_key -->
<g id="edge7" class="edge">
<title>aws_instance.my_instance-&gt;aws_key_pair.deployer_key</title>
<path fill="none" stroke="#000000" d="M1017.7603,-90.1362C995.2704,-108.8455 957.5047,-137.425 920.0032,-153 905.8089,-158.8951 890.2808,-163.5144 874.8645,-167.1309"/>
<polygon fill="#000000" stroke="#000000" points="873.7726,-163.7878 864.7651,-169.366 875.2852,-170.6224 873.7726,-163.7878"/>
</g>
<!-- aws_internet_gateway.igw -->
<g id="node6" class="node">
<title>aws_internet_gateway.igw</title>
<polygon fill="none" stroke="#000000" points="331.0296,-194 165.6978,-194 165.6978,-158 331.0296,-158 331.0296,-194"/>
<text text-anchor="middle" x="248.3637" y="-171.8" font-family="sans-serif" font-size="14.00" fill="#000000">aws_internet_gateway.igw</text>
</g>
<!-- aws_vpc.my_vpc -->
<g id="node13" class="node">
<title>aws_vpc.my_vpc</title>
<polygon fill="none" stroke="#000000" points="113.3792,-144 .2064,-144 .2064,-108 113.3792,-108 113.3792,-144"/>
<text text-anchor="middle" x="56.7928" y="-121.8" font-family="sans-serif" font-size="14.00" fill="#000000">aws_vpc.my_vpc</text>
</g>
<!-- aws_internet_gateway.igw&#45;&gt;aws_vpc.my_vpc -->
<g id="edge8" class="edge">
<title>aws_internet_gateway.igw-&gt;aws_vpc.my_vpc</title>
<path fill="none" stroke="#000000" d="M179.2022,-157.9489C161.0261,-153.2049 141.4607,-148.0983 123.4206,-143.3898"/>
<polygon fill="#000000" stroke="#000000" points="124.1335,-139.9587 113.5737,-140.8198 122.3656,-146.7318 124.1335,-139.9587"/>
</g>
<!-- tls_private_key.ssh -->
<g id="node15" class="node">
<title>tls_private_key.ssh</title>
<polygon fill="none" stroke="#000000" points="552.9498,-252 429.5478,-252 429.5478,-216 552.9498,-216 552.9498,-252"/>
<text text-anchor="middle" x="491.2488" y="-229.8" font-family="sans-serif" font-size="14.00" fill="#000000">tls_private_key.ssh</text>
</g>
<!-- aws_key_pair.deployer_key&#45;&gt;tls_private_key.ssh -->
<g id="edge9" class="edge">
<title>aws_key_pair.deployer_key-&gt;tls_private_key.ssh</title>
<path fill="none" stroke="#000000" d="M690.5742,-196.4217C649.7806,-204.1124 601.7726,-213.1633 563.0944,-220.4551"/>
<polygon fill="#000000" stroke="#000000" points="562.1391,-217.0735 552.9607,-222.3656 563.436,-223.9523 562.1391,-217.0735"/>
</g>
<!-- aws_route_table.public_route_table -->
<g id="node8" class="node">
<title>aws_route_table.public_route_table</title>
<polygon fill="none" stroke="#000000" points="599.4629,-198 383.0347,-198 383.0347,-162 599.4629,-162 599.4629,-198"/>
<text text-anchor="middle" x="491.2488" y="-175.8" font-family="sans-serif" font-size="14.00" fill="#000000">aws_route_table.public_route_table</text>
</g>
<!-- aws_route_table.public_route_table&#45;&gt;aws_internet_gateway.igw -->
<g id="edge10" class="edge">
<title>aws_route_table.public_route_table-&gt;aws_internet_gateway.igw</title>
<path fill="none" stroke="#000000" d="M382.9475,-178.2164C369.137,-177.989 355.0971,-177.7578 341.5535,-177.5347"/>
<polygon fill="#000000" stroke="#000000" points="341.3618,-174.0312 331.3055,-177.3659 341.2464,-181.0302 341.3618,-174.0312"/>
</g>
<!-- aws_route_table_association.public_association -->
<g id="node9" class="node">
<title>aws_route_table_association.public_association</title>
<polygon fill="none" stroke="#000000" points="919.8271,-144 635.5319,-144 635.5319,-108 919.8271,-108 919.8271,-144"/>
<text text-anchor="middle" x="777.6795" y="-121.8" font-family="sans-serif" font-size="14.00" fill="#000000">aws_route_table_association.public_association</text>
</g>
<!-- aws_route_table_association.public_association&#45;&gt;aws_route_table.public_route_table -->
<g id="edge11" class="edge">
<title>aws_route_table_association.public_association-&gt;aws_route_table.public_route_table</title>
<path fill="none" stroke="#000000" d="M681.904,-144.0563C654.6733,-149.19 624.8631,-154.8101 597.0727,-160.0493"/>
<polygon fill="#000000" stroke="#000000" points="596.1125,-156.6686 586.934,-161.9607 597.4094,-163.5474 596.1125,-156.6686"/>
</g>
<!-- aws_route_table_association.public_association&#45;&gt;aws_subnet.public_subnet_1 -->
<g id="edge12" class="edge">
<title>aws_route_table_association.public_association-&gt;aws_subnet.public_subnet_1</title>
<path fill="none" stroke="#000000" d="M635.3033,-126C620.0169,-126 604.7178,-126 590.1026,-126"/>
<polygon fill="#000000" stroke="#000000" points="590.1022,-122.5001 580.1022,-126 590.1022,-129.5001 590.1022,-122.5001"/>
</g>
<!-- aws_security_group.instance_sg -->
<g id="node11" class="node">
<title>aws_security_group.instance_sg</title>
<polygon fill="none" stroke="#000000" points="346.9204,-94 149.807,-94 149.807,-58 346.9204,-58 346.9204,-94"/>
<text text-anchor="middle" x="248.3637" y="-71.8" font-family="sans-serif" font-size="14.00" fill="#000000">aws_security_group.instance_sg</text>
</g>
<!-- aws_security_group.efs_sg&#45;&gt;aws_security_group.instance_sg -->
<g id="edge13" class="edge">
<title>aws_security_group.efs_sg-&gt;aws_security_group.instance_sg</title>
<path fill="none" stroke="#000000" d="M406.981,-73.3878C390.9825,-73.6513 374.0315,-73.9304 357.3944,-74.2044"/>
<polygon fill="#000000" stroke="#000000" points="357.0283,-70.7099 347.0873,-74.3742 357.1436,-77.7089 357.0283,-70.7099"/>
</g>
<!-- aws_security_group.instance_sg&#45;&gt;aws_vpc.my_vpc -->
<g id="edge14" class="edge">
<title>aws_security_group.instance_sg-&gt;aws_vpc.my_vpc</title>
<path fill="none" stroke="#000000" d="M179.2022,-94.0511C161.0261,-98.7951 141.4607,-103.9017 123.4206,-108.6102"/>
<polygon fill="#000000" stroke="#000000" points="122.3656,-105.2682 113.5737,-111.1802 124.1335,-112.0413 122.3656,-105.2682"/>
</g>
<!-- aws_subnet.public_subnet_1&#45;&gt;aws_vpc.my_vpc -->
<g id="edge15" class="edge">
<title>aws_subnet.public_subnet_1-&gt;aws_vpc.my_vpc</title>
<path fill="none" stroke="#000000" d="M402.5443,-126C319.9393,-126 198.616,-126 123.8249,-126"/>
<polygon fill="#000000" stroke="#000000" points="123.5893,-122.5001 113.5892,-126 123.5892,-129.5001 123.5893,-122.5001"/>
</g>
<!-- local_file.private_key -->
<g id="node14" class="node">
<title>local_file.private_key</title>
<polygon fill="none" stroke="#000000" points="847.1326,-252 708.2264,-252 708.2264,-216 847.1326,-216 847.1326,-252"/>
<text text-anchor="middle" x="777.6795" y="-229.8" font-family="sans-serif" font-size="14.00" fill="#000000">local_file.private_key</text>
</g>
<!-- local_file.private_key&#45;&gt;tls_private_key.ssh -->
<g id="edge16" class="edge">
<title>local_file.private_key-&gt;tls_private_key.ssh</title>
<path fill="none" stroke="#000000" d="M708.3426,-234C664.4126,-234 607.7115,-234 563.2738,-234"/>
<polygon fill="#000000" stroke="#000000" points="563.1245,-230.5001 553.1244,-234 563.1244,-237.5001 563.1245,-230.5001"/>
</g>
</g>
</svg>